<?xml version="1.0" standalone="no"?>
<!DOCTYPE svg PUBLIC "-//W3C//DTD SVG 20010904//EN"
 "http://www.w3.org/TR/2001/REC-SVG-20010904/DTD/svg10.dtd">
<svg version="1.0" xmlns="http://www.w3.org/2000/svg"
 width="475.000000pt" height="475.000000pt" viewBox="0 0 475.000000 475.000000"
 preserveAspectRatio="xMidYMid meet">

<g transform="translate(0.000000,475.000000) scale(0.100000,-0.100000)"
fill="#000000" stroke="none">
<path d="M1124 4368 c-224 -255 -362 -703 -324 -1054 l11 -110 -83 -85 c-62
-62 -92 -103 -119 -159 -59 -120 -67 -141 -80 -212 -27 -149 31 -298 171 -438
47 -47 102 -94 123 -105 20 -11 37 -22 37 -26 0 -3 -37 -14 -82 -24 -92 -20
-290 -85 -350 -116 -33 -17 -44 -18 -78 -9 -50 13 -62 7 -50 -25 10 -26 1 -37
-43 -54 -32 -12 -34 -27 -7 -56 20 -21 20 -21 -6 -58 -27 -40 -25 -57 7 -57
11 0 24 -10 29 -22 l9 -23 0 23 c1 12 -3 22 -7 22 -5 0 -17 6 -27 14 -17 13
-17 15 8 48 27 35 27 35 7 53 -11 10 -20 22 -20 27 0 14 64 36 77 26 9 -7 9
-1 1 26 -6 20 -9 38 -6 41 2 3 19 0 37 -6 28 -10 38 -9 69 9 56 31 193 79 334
117 l127 33 30 -36 c17 -20 30 -32 31 -27 0 20 -62 86 -98 104 -21 11 -60 38
-89 61 -43 35 -50 46 -43 61 29 54 -12 223 -80 328 -43 67 -70 87 -90 68 -10
-10 -11 -5 -5 23 28 136 111 284 217 386 40 39 86 79 101 89 15 10 26 20 23
22 -2 3 -16 -3 -29 -12 -24 -15 -26 -15 -30 2 -20 71 -15 362 9 482 15 73 312
335 360 317 25 -10 -2 -390 -41 -574 -7 -35 -14 -64 -16 -66 -2 -2 -32 -18
-67 -36 -34 -18 -61 -35 -59 -37 2 -2 33 10 68 26 197 88 563 80 794 -19 l43
-18 28 29 c60 63 349 223 535 297 76 30 278 93 357 111 41 9 42 8 42 -18 0
-39 -41 -151 -95 -261 -25 -52 -54 -110 -63 -129 -40 -82 -74 -103 -267 -169
-99 -34 -200 -65 -224 -68 -38 -6 -46 -4 -62 17 -31 40 -21 3 12 -45 43 -64
97 -185 206 -456 51 -129 114 -270 138 -312 29 -50 45 -90 45 -111 0 -76 51
-164 101 -174 33 -6 40 -15 143 -168 58 -88 74 -120 78 -159 7 -57 31 -93 83
-123 137 -77 190 -558 84 -764 -17 -33 -106 -109 -128 -109 -6 0 -13 -5 -17
-11 -11 -18 45 -1 75 22 19 15 26 17 32 7 11 -22 39 -190 39 -238 0 -40 -1
-43 -16 -29 -8 9 -26 45 -39 80 -16 44 -25 59 -30 48 -3 -9 8 -50 26 -92 31
-76 33 -107 5 -107 -31 0 -68 47 -91 115 -13 38 -29 71 -35 73 -14 5 -9 -15
25 -102 l24 -59 -34 33 c-34 33 -78 119 -90 178 -6 27 -4 32 12 32 11 0 27 6
37 13 14 10 -1 12 -86 9 -128 -5 -218 12 -401 75 -110 38 -148 46 -228 51
-117 6 -179 -10 -288 -74 -99 -57 -206 -85 -280 -73 -110 17 -186 56 -274 139
-82 76 -106 148 -131 385 -19 179 -44 303 -90 440 -38 113 -62 159 -50 95 4
-19 11 -43 16 -53 5 -10 8 -20 6 -22 -10 -10 -437 41 -598 71 -110 21 -182 25
-177 10 2 -6 21 -10 43 -10 21 1 84 -7 139 -17 149 -28 284 -46 440 -59 77 -6
146 -15 154 -19 30 -15 86 -274 111 -518 18 -174 38 -227 117 -308 64 -67 132
-110 214 -137 l69 -22 16 -55 c26 -89 49 -126 102 -160 27 -17 55 -31 63 -30
8 0 25 14 39 32 24 29 25 37 23 142 l-2 110 67 41 c162 100 262 105 501 23
147 -51 269 -79 346 -79 l60 0 19 -64 c22 -77 70 -152 111 -174 17 -9 48 -27
69 -40 38 -23 40 -24 53 -6 7 10 13 26 13 36 0 10 6 18 14 18 32 0 34 68 6
203 -11 52 -22 102 -26 110 -3 8 6 27 19 43 13 16 32 44 41 62 17 33 45 211
46 285 0 35 2 37 33 37 50 0 132 25 135 41 1 8 -29 48 -67 89 -80 85 -82 79
39 128 138 55 210 91 216 107 4 10 -19 44 -68 98 -40 45 -97 110 -126 143
l-52 62 116 78 c64 44 137 97 161 118 52 46 53 44 -13 183 -35 71 -44 101 -37
112 14 23 176 136 328 231 72 44 189 121 260 171 72 49 195 130 275 179 199
123 184 108 181 182 -2 73 -50 372 -81 503 -43 184 -103 377 -126 403 -15 18
-362 -265 -587 -479 -245 -232 -617 -629 -683 -729 -31 -46 -28 -81 10 -145
27 -44 130 -251 182 -362 l33 -72 -82 -65 c-45 -36 -122 -96 -172 -133 -49
-38 -90 -74 -90 -80 0 -6 59 -74 130 -150 177 -188 166 -165 102 -202 -30 -17
-67 -34 -83 -37 -26 -5 -31 -1 -54 42 -13 25 -59 97 -102 158 -43 61 -99 143
-125 181 -25 39 -62 94 -82 124 -68 101 -90 136 -152 245 -34 60 -73 137 -86
170 -13 34 -28 70 -33 81 -5 11 -43 106 -85 210 -42 105 -94 223 -115 262 -21
40 -36 74 -32 77 4 2 27 7 52 11 25 4 124 34 220 67 287 98 594 257 780 404
76 59 173 162 196 206 25 49 14 58 -69 58 -94 0 -353 -26 -455 -45 -113 -22
-397 -103 -461 -132 -179 -82 -233 -108 -353 -174 -73 -40 -151 -89 -173 -110
l-40 -37 -60 24 c-93 38 -163 53 -297 64 -133 11 -280 6 -341 -12 -20 -6 -40
-9 -43 -5 -3 3 3 50 15 104 34 166 41 235 41 430 0 200 -24 402 -53 443 -14
20 -15 20 -43 -12z m3199 -445 c58 -134 107 -338 157 -663 24 -157 27 -224 12
-243 -7 -8 -52 -38 -100 -67 -124 -76 -192 -119 -397 -255 -99 -66 -213 -140
-253 -165 -145 -90 -287 -197 -290 -218 -2 -11 7 -40 19 -63 12 -24 34 -73 49
-110 l27 -68 -31 -30 c-31 -30 -50 -44 -192 -140 -43 -29 -83 -57 -88 -62 -5
-4 15 -38 45 -75 34 -43 45 -63 31 -55 -21 11 -21 10 -12 -14 6 -15 10 -29 10
-31 0 -3 -27 16 -60 41 -33 25 -60 43 -60 40 0 -3 8 -20 17 -38 16 -30 26 -82
13 -71 -55 48 -277 280 -274 286 2 4 48 40 102 80 146 109 242 190 242 202 0
13 -153 318 -221 442 l-38 70 37 60 c103 166 687 759 1001 1015 148 120 213
169 226 169 7 0 19 -17 28 -37z m-3726 -1235 c23 -25 57 -89 68 -128 7 -24 7
-24 -9 -5 -17 23 -22 5 -6 -25 7 -14 6 -21 -3 -27 -8 -4 -17 -20 -21 -35 -5
-23 1 -35 37 -73 24 -25 41 -47 38 -50 -12 -7 -82 87 -112 150 -39 82 -53 215
-21 215 5 0 18 -10 29 -22z m90 -200 c-3 -8 -6 -5 -6 6 -1 11 2 17 5 13 3 -3
4 -12 1 -19z m1945 -363 c6 -12 -1 -8 -16 9 -14 16 -26 34 -26 40 1 12 26 -17
42 -49z m302 -480 c5 -22 4 -26 -4 -15 -5 8 -10 24 -10 34 0 26 6 18 14 -19z
m-1154 -1032 c1 -21 3 -61 6 -90 3 -29 1 -60 -5 -70 -9 -16 -11 -15 -21 12 -6
17 -15 48 -18 69 -4 22 -13 41 -20 44 -15 5 -7 -41 20 -116 24 -64 14 -83 -26
-51 -28 22 -56 77 -56 113 0 23 -16 53 -24 46 -5 -6 8 -76 19 -104 6 -14 5
-17 -3 -12 -18 11 -50 78 -61 125 -9 40 -8 41 18 41 14 1 53 7 86 14 87 20 85
20 85 -21z"/>
<path d="M1495 3206 c-36 -16 -76 -60 -95 -105 -27 -66 23 -147 99 -161 56
-10 129 24 161 74 39 64 14 163 -48 187 -46 18 -86 20 -117 5z m66 -33 c19
-49 -47 -105 -87 -73 -35 30 1 100 51 100 18 0 28 -8 36 -27z"/>
<path d="M713 3031 c-47 -34 -93 -121 -93 -175 0 -41 28 -76 61 -76 32 0 83
59 107 123 29 76 29 121 0 141 -29 21 -28 21 -75 -13z m81 -13 c15 -24 -22
-73 -55 -73 -33 0 -39 45 -9 75 24 24 48 23 64 -2z"/>
<path d="M1744 2916 c-40 -18 -98 -87 -112 -135 -22 -71 -15 -151 18 -217 34
-68 67 -92 137 -100 69 -8 130 33 168 110 36 73 39 185 8 256 -38 86 -133 123
-219 86z m110 -12 c9 -3 13 -10 10 -15 -3 -6 -1 -15 5 -22 6 -7 6 -18 1 -26
-4 -8 -6 -20 -3 -28 3 -7 0 -13 -6 -13 -7 0 -5 -9 5 -25 15 -23 15 -24 -10
-31 -18 -4 -29 -17 -37 -42 -6 -21 -13 -40 -16 -44 -6 -11 -55 10 -81 35 l-23
22 -19 -24 c-17 -23 -18 -24 -24 -5 -3 10 -3 -3 0 -30 3 -27 8 -56 11 -65 3
-10 0 -9 -8 4 -8 12 -14 53 -14 106 0 77 3 90 28 128 15 23 42 51 60 61 31 19
90 26 121 14z m76 -60 c11 -20 20 -41 20 -47 0 -7 -7 2 -16 18 -8 17 -25 40
-37 53 -16 18 -17 22 -5 17 10 -4 26 -22 38 -41z m27 -86 c-3 -8 -6 -5 -6 6
-1 11 2 17 5 13 3 -3 4 -12 1 -19z m0 -110 c-3 -8 -6 -5 -6 6 -1 11 2 17 5 13
3 -3 4 -12 1 -19z m-16 -61 c-6 -18 -26 -47 -43 -63 l-32 -29 31 37 c17 20 34
51 38 68 4 17 9 29 12 26 3 -2 0 -20 -6 -39z m-220 -69 c13 -11 17 -16 9 -12
-24 11 -60 46 -60 58 0 5 6 2 13 -8 7 -10 24 -27 38 -38z m56 -24 c-3 -3 -12
-4 -19 -1 -8 3 -5 6 6 6 11 1 17 -2 13 -5z"/>
<path d="M978 2913 c-21 -5 -24 -23 -4 -23 24 0 46 12 40 21 -5 9 -8 10 -36 2z"/>
<path d="M1287 2839 c-16 -16 -42 -36 -58 -44 -35 -19 -150 -34 -204 -28 -21
2 -55 -3 -77 -12 -44 -17 -101 -20 -129 -5 -13 8 -19 7 -19 0 0 -17 51 -32 95
-28 l40 3 32 -65 c18 -36 33 -70 33 -76 0 -19 82 -148 119 -188 20 -21 55 -47
79 -58 36 -16 46 -17 69 -6 16 7 34 27 42 43 20 41 26 157 12 238 -6 37 -16
97 -22 133 -9 54 -8 68 4 82 40 48 27 57 -16 11z m19 -401 c-8 -67 -34 -92
-85 -83 -46 9 -80 35 -81 63 0 12 3 21 8 20 4 -1 20 6 35 16 25 17 73 31 116
35 11 1 12 -10 7 -51z"/>
<path d="M2110 2307 c-19 -6 -54 -23 -78 -39 -24 -15 -50 -28 -58 -28 -7 0
-14 -9 -14 -19 0 -30 -46 -121 -70 -138 l-22 -15 25 -27 c14 -14 27 -42 31
-61 10 -56 54 -142 94 -182 48 -50 64 -49 19 2 -58 63 -111 185 -88 199 7 5 0
17 -19 36 -16 16 -30 32 -30 35 0 4 17 12 38 18 l38 12 -4 60 c-5 65 5 75 44
45 28 -21 32 -19 51 20 9 19 20 35 24 35 4 0 19 -18 32 -40 l24 -40 23 25 c13
14 27 25 31 25 11 0 32 -69 25 -85 -7 -20 3 -19 25 1 17 15 18 14 24 -20 4
-20 5 -57 2 -84 -4 -32 -3 -39 3 -22 4 14 8 56 9 94 1 62 -1 68 -18 63 -15 -3
-22 4 -34 34 -17 43 -35 49 -62 19 -10 -11 -21 -20 -24 -20 -10 0 -41 73 -35
79 3 4 47 7 97 8 111 3 112 3 62 14 -54 11 -122 9 -165 -4z m-52 -69 c-7 -12
-13 -24 -14 -26 -2 -5 -34 10 -34 17 0 8 53 41 58 36 2 -2 -3 -14 -10 -27z
m-106 -120 c-7 -7 -12 -8 -12 -2 0 6 3 14 7 17 3 4 9 5 12 2 2 -3 -1 -11 -7
-17z"/>
<path d="M2121 2042 c-25 -36 -27 -69 -5 -100 18 -26 39 -30 26 -4 -19 36 -21
79 -5 101 8 12 13 25 10 27 -3 3 -14 -8 -26 -24z"/>
<path d="M408 1914 c-16 -8 -28 -21 -28 -29 0 -18 55 -48 78 -43 11 3 3 9 -21
17 -41 14 -44 29 -9 47 13 6 25 14 29 18 12 12 -22 5 -49 -10z"/>
</g>
</svg>
